HIERARCHY
ROOT Hips
{
    OFFSET   0.000000   0.000000   0.000000
    CHANNELS 6 Xposition Yposition Zposition Zrotation Xrotation Yrotation
    JOINT Chest
    {
        OFFSET   0.000000   8.007230   0.000000
        CHANNELS 3 Zrotation Xrotation Yrotation
        JOINT Chest2
        {
            OFFSET   0.000000  22.077100   0.000000
            CHANNELS 3 Zrotation Xrotation Yrotation
            JOINT Neck
            {
                OFFSET   0.000000  23.254700   0.000000
                CHANNELS 3 Zrotation Xrotation Yrotation
                JOINT Head
                {
                    OFFSET   0.000010  14.370000   1.956610
                    CHANNELS 3 Zrotation Xrotation Yrotation
                    End Site
                    {
                        OFFSET   0.000000  19.566000   0.000000
                    }
                }
            }
            JOINT LeftCollar
            {
                OFFSET   3.911900  19.017000  -0.467063
                CHANNELS 3 Zrotation Xrotation Yrotation
                JOINT LeftShoulder
                {
                    OFFSET  10.383700   0.000000   0.000000
                    CHANNELS 3 Zrotation Xrotation Yrotation
                    JOINT LeftElbow
                    {
                        OFFSET  26.662100   0.001671   0.000522
                        CHANNELS 3 Zrotation Xrotation Yrotation
                        JOINT LeftWrist
                        {
                            OFFSET  28.869000   0.000037  -0.000114
                            CHANNELS 3 Zrotation Xrotation Yrotation
                            JOINT LeftFinger0
                            {
                                OFFSET   2.044650  -2.323450   3.252850
                                CHANNELS 3 Zrotation Xrotation Yrotation
                                JOINT LeftFinger01
                                {
                                    OFFSET   3.088140   0.000000   0.000000
                                    CHANNELS 3 Zrotation Xrotation Yrotation
                                    JOINT LeftFinger02
                                    {
                                        OFFSET   2.639460   0.000000   0.000000
                                        CHANNELS 3 Zrotation Xrotation Yrotation
                                        End Site
                                        {
                                            OFFSET   2.582190   0.000000   0.000000
                                        }
                                    }
                                }
                            }
                            JOINT LeftFinger1
                            {
                                OFFSET   8.364480   0.000000   3.252850
                                CHANNELS 3 Zrotation Xrotation Yrotation
                                JOINT LeftFinger11
                                {
                                    OFFSET   4.646930   0.000000   0.000000
                                    CHANNELS 3 Zrotation Xrotation Yrotation
                                    JOINT LeftFinger12
                                    {
                                        OFFSET   2.323470   0.000000   0.000000
                                        CHANNELS 3 Zrotation Xrotation Yrotation
                                        End Site
                                        {
                                            OFFSET   2.273050   0.000000   0.000000
                                        }
                                    }
                                }
                            }
                            JOINT LeftFinger2
                            {
                                OFFSET   8.364490   0.000016   1.078090
                                CHANNELS 3 Zrotation Xrotation Yrotation
                                JOINT LeftFinger21
                                {
                                    OFFSET   5.111620   0.000000   0.000000
                                    CHANNELS 3 Zrotation Xrotation Yrotation
                                    JOINT LeftFinger22
                                    {
                                        OFFSET   2.788150   0.000013   0.000000
                                        CHANNELS 3 Zrotation Xrotation Yrotation
                                        End Site
                                        {
                                            OFFSET   2.727660   0.000000   0.000000
                                        }
                                    }
                                }
                            }
                            JOINT LeftFinger3
                            {
                                OFFSET   7.899780   0.000016  -1.078090
                                CHANNELS 3 Zrotation Xrotation Yrotation
                                JOINT LeftFinger31
                                {
                                    OFFSET   4.646930   0.000000   0.000000
                                    CHANNELS 3 Zrotation Xrotation Yrotation
                                    JOINT LeftFinger32
                                    {
                                        OFFSET   2.323470   0.000000   0.000000
                                        CHANNELS 3 Zrotation Xrotation Yrotation
                                        End Site
                                        {
                                            OFFSET   2.273050   0.000000   0.000000
                                        }
                                    }
                                }
                            }
                            JOINT LeftFinger4
                            {
                                OFFSET   7.435080   0.000000  -3.252850
                                CHANNELS 3 Zrotation Xrotation Yrotation
                                JOINT LeftFinger41
                                {
                                    OFFSET   3.717550   0.000000   0.000000
                                    CHANNELS 3 Zrotation Xrotation Yrotation
                                    JOINT LeftFinger42
                                    {
                                        OFFSET   1.858760   0.000000   0.000000
                                        CHANNELS 3 Zrotation Xrotation Yrotation
                                        End Site
                                        {
                                            OFFSET   1.818440   0.000000   0.000000
                                        }
                                    }
                                }
                            }
                        }
                    }
                }
            }
            JOINT RightCollar
            {
                OFFSET  -3.911900  19.017000  -0.467064
                CHANNELS 3 Zrotation Xrotation Yrotation
                JOINT RightShoulder
                {
                    OFFSET -10.383700   0.000000   0.000000
                    CHANNELS 3 Zrotation Xrotation Yrotation
                    JOINT RightElbow
                    {
                        OFFSET -26.662100   0.001633   0.000260
                        CHANNELS 3 Zrotation Xrotation Yrotation
                        JOINT RightWrist
                        {
                            OFFSET -28.869000  -0.000045  -0.000080
                            CHANNELS 3 Zrotation Xrotation Yrotation
                            JOINT RightFinger0
                            {
                                OFFSET  -2.044660  -2.323490   3.252850
                                CHANNELS 3 Zrotation Xrotation Yrotation
                                JOINT RightFinger01
                                {
                                    OFFSET  -3.088140   0.000000   0.000000
                                    CHANNELS 3 Zrotation Xrotation Yrotation
                                    JOINT RightFinger02
                                    {
                                        OFFSET  -2.639450   0.000000   0.000000
                                        CHANNELS 3 Zrotation Xrotation Yrotation
                                        End Site
                                        {
                                            OFFSET  -2.582190   0.000000   0.000000
                                        }
                                    }
                                }
                            }
                            JOINT RightFinger1
                            {
                                OFFSET  -8.364480   0.000000   3.252850
                                CHANNELS 3 Zrotation Xrotation Yrotation
                                JOINT RightFinger11
                                {
                                    OFFSET  -4.646920   0.000000   0.000000
                                    CHANNELS 3 Zrotation Xrotation Yrotation
                                    JOINT RightFinger12
                                    {
                                        OFFSET  -2.323470   0.000000   0.000000
                                        CHANNELS 3 Zrotation Xrotation Yrotation
                                        End Site
                                        {
                                            OFFSET  -2.273050   0.000000   0.000000
                                        }
                                    }
                                }
                            }
                            JOINT RightFinger2
                            {
                                OFFSET  -8.364480   0.000000   1.078090
                                CHANNELS 3 Zrotation Xrotation Yrotation
                                JOINT RightFinger21
                                {
                                    OFFSET  -5.111610   0.000000   0.000000
                                    CHANNELS 3 Zrotation Xrotation Yrotation
                                    JOINT RightFinger22
                                    {
                                        OFFSET  -2.788160   0.000000   0.000000
                                        CHANNELS 3 Zrotation Xrotation Yrotation
                                        End Site
                                        {
                                            OFFSET  -2.727660   0.000000   0.000000
                                        }
                                    }
                                }
                            }
                            JOINT RightFinger3
                            {
                                OFFSET  -7.899780   0.000000  -1.078090
                                CHANNELS 3 Zrotation Xrotation Yrotation
                                JOINT RightFinger31
                                {
                                    OFFSET  -4.646930   0.000000   0.000000
                                    CHANNELS 3 Zrotation Xrotation Yrotation
                                    JOINT RightFinger32
                                    {
                                        OFFSET  -2.323470   0.000000   0.000000
                                        CHANNELS 3 Zrotation Xrotation Yrotation
                                        End Site
                                        {
                                            OFFSET  -2.273050   0.000000   0.000000
                                        }
                                    }
                                }
                            }
                            JOINT RightFinger4
                            {
                                OFFSET  -7.435090   0.000000  -3.252850
                                CHANNELS 3 Zrotation Xrotation Yrotation
                                JOINT RightFinger41
                                {
                                    OFFSET  -3.717550   0.000000   0.000000
                                    CHANNELS 3 Zrotation Xrotation Yrotation
                                    JOINT RightFinger42
                                    {
                                        OFFSET  -1.858760   0.000000   0.000000
                                        CHANNELS 3 Zrotation Xrotation Yrotation
                                        End Site
                                        {
                                            OFFSET  -1.818440   0.000000   0.000000
                                        }
                                    }
                                }
                            }
                        }
                    }
                }
            }
        }
    }
    JOINT LeftHip
    {
        OFFSET   9.782990   0.000000   0.000000
        CHANNELS 3 Zrotation Xrotation Yrotation
        JOINT LeftKnee
        {
            OFFSET  -0.000063 -41.789100   0.001657
            CHANNELS 3 Zrotation Xrotation Yrotation
            JOINT LeftAnkle
            {
                OFFSET   0.000078 -41.133200  -0.000113
                CHANNELS 3 Zrotation Xrotation Yrotation
                JOINT LeftToe
                {
                    OFFSET   0.000000  -6.358970  14.674500
                    CHANNELS 3 Zrotation Xrotation Yrotation
                    End Site
                    {
                        OFFSET   0.000000   0.000000   3.913200
                    }
                }
            }
        }
    }
    JOINT RightHip
    {
        OFFSET  -9.782990   0.000000   0.000000
        CHANNELS 3 Zrotation Xrotation Yrotation
        JOINT RightKnee
        {
            OFFSET   0.000053 -41.789200   0.000277
            CHANNELS 3 Zrotation Xrotation Yrotation
            JOINT RightAnkle
            {
                OFFSET   0.000030 -41.133200  -0.000150
                CHANNELS 3 Zrotation Xrotation Yrotation
                JOINT RightToe
                {
                    OFFSET   0.000000  -6.358960  14.674500
                    CHANNELS 3 Zrotation Xrotation Yrotation
                    End Site
                    {
                        OFFSET   0.000000   0.000000   3.913200
                    }
                }
            }
        }
    }
}
MOTION
Frames: 4
Frame Time:   0.016667
  3.447690  89.384900   0.248859  -2.520120 -11.791000 -10.865700  -0.767066   6.529510   1.111520  -1.678940  13.042100   2.334560   0.270617  -1.378460   0.005122   0.444980  -2.795010   4.706720  -5.635670  -1.793140   3.840450 -72.726700  16.954300  -3.564100   0.258699  -0.306640 -18.480100  11.085900  -4.225470   4.366720  42.106400  38.792100 -70.662100 -32.175800   0.000000   0.000000 -11.087900   0.001548   0.000000 -30.831600   5.218230  -8.661360 -25.548000   0.008207   0.000833 -17.883600   0.011863   0.000455 -28.260400  -1.756570   3.264220 -34.267600  -0.000703   0.001638 -22.822300   0.011034  -0.000821 -27.853100  -1.733430   3.276550 -31.376500  -0.009923   0.000402 -20.896800   0.000567   0.000220 -28.980800  -1.797250   3.242010 -43.546100  -0.002113   0.000183 -29.001700  -0.000312  -0.009947  10.931200   1.526220   9.382240  68.038800  -0.963888  -3.668090  -4.570220  -8.348500  14.658200 -10.321900   2.045500   3.641420 -40.134700  33.390600  67.123800  29.144300  -0.003869   0.002237   9.572130  -0.000438   0.011975  32.657600  10.891400  16.426500  28.009800   0.002733   0.001490  19.606800  -0.002921   0.005283  34.587200   4.779110   6.886920  52.312700   0.000673  -0.004180  34.840200   0.012817   0.002342  33.858800   2.932530   4.358500  50.957100  -0.000063   0.001713  33.937500   0.007312   0.006204  45.038700  -2.685050  -2.678900  67.652300   0.002064   0.000713  45.056400   0.005594   0.011237  -1.926910  15.026500   7.193130   0.211952   0.436321   4.360130   1.399860  -4.783830   5.809600  -0.000000   0.000000   0.000000  -0.245626  10.573700   2.358600  -3.044590   6.283660 -11.667100   3.839780  -4.182170   9.825690   0.000000   0.000000  -0.000000
  3.442170  89.384900   0.248716  -2.505910 -11.796900 -10.882200  -0.773324   6.544890   1.110560  -1.691910  13.072800   2.333610   0.260471  -1.368390   0.005160   0.428328  -2.774770   4.707120  -5.627830  -1.793170   3.822390 -72.721300  16.980400  -3.600790   0.244216  -0.341150 -18.470200  11.078400  -4.215450   4.360250  42.121100  38.820100 -70.701400 -32.177900   0.000000   0.000032 -11.088900   0.001554  -0.000000 -30.839800   5.216860  -8.657670 -25.555500   0.008206   0.000834 -17.888800   0.011869   0.000460 -28.259900  -1.761450   3.273130 -34.277300  -0.000710   0.001638 -22.828800   0.011037  -0.000820 -27.852600  -1.738270   3.285480 -31.386100  -0.009930   0.000403 -20.903100   0.000563   0.000222 -28.980200  -1.802440   3.250760 -43.546100  -0.002113   0.000181 -29.001700  -0.000312  -0.009949  10.946500   1.493140   9.355110  68.056600  -1.021010  -3.765800  -4.692680  -8.349730  15.060300 -10.203600   2.135610   3.620170 -39.930900  33.149900  66.822000  29.285900  -0.003863   0.002232   9.642960  -0.000434   0.011974  32.706100  10.896600  16.405800  28.048400   0.002731   0.001503  19.633900  -0.002920   0.005298  34.587500   4.778690   6.886860  52.313100   0.000659  -0.004185  34.840500   0.012829   0.002265  33.821100   2.744310   4.083110  50.874600  -0.000075   0.001578  33.882500   0.007304   0.006174  44.980200  -2.664650  -2.664240  67.563300   0.002051   0.000697  44.997100   0.005568   0.011234  -1.942700  15.036800   7.217600   0.212063   0.434529   4.352990   1.400500  -4.787190   5.809610  -0.000000   0.000000  -0.000000  -0.260375  10.554100   2.366510  -3.043790   6.307720 -11.657900   3.840100  -4.184100   9.825700   0.000000   0.000000   0.000000
  3.433600  89.385000   0.248573  -2.488310 -11.808300 -10.912100  -0.779446   6.573200   1.106220  -1.704440  13.129300   2.326200   0.240840  -1.351160   0.005198   0.396001  -2.740030   4.710350  -5.612760  -1.793190   3.793180 -72.713200  17.025700  -3.666450   0.217735  -0.401069 -18.454500  11.066800  -4.196520   4.350360  42.135900  38.848000 -70.740800 -32.185200   0.000000   0.000065 -11.092600   0.001559   0.000000 -30.849400   5.210820  -8.645900 -25.562900   0.008206   0.000837 -17.894000   0.011876   0.000470 -28.258900  -1.771000   3.290760 -34.287000  -0.000723   0.001640 -22.835200   0.011046  -0.000816 -27.851500  -1.747730   3.303170 -31.395700  -0.009947   0.000405 -20.909500   0.000553   0.000226 -28.979100  -1.812320   3.268230 -43.546100  -0.002114   0.000179 -29.001700  -0.000313  -0.009952  10.969200   1.439200   9.298450  68.092000  -1.141280  -3.963620  -4.973950  -8.333170  15.892700 -10.027500   2.225710   3.598940 -39.619600  32.841300  66.427000  29.534400  -0.003848   0.002228   9.767180  -0.000422   0.011972  32.845000  10.911700  16.346100  28.159000   0.002726   0.001538  19.711300  -0.002920   0.005334  34.589500   4.776270   6.886420  52.315600   0.000622  -0.004200  34.842200   0.012855   0.002187  33.785100   2.421680   3.609590  50.792100  -0.000103   0.001443  33.827500   0.007284   0.006110  44.884900  -2.631540  -2.640270  67.418300   0.002020   0.000666  44.900600   0.005504   0.011226  -1.963290  15.055200   7.256450   0.211697   0.432738   4.344870   1.401480  -4.793880   5.809640   0.000000   0.000000   0.000000  -0.279770  10.502100   2.379480  -3.043240   6.370480 -11.639800   3.840700  -4.188150   9.825730  -0.000000   0.000000   0.000000
  3.427340  89.385100   0.250800  -2.487390 -11.820000 -10.939800  -0.777288   6.601230   1.097960  -1.699770  13.185500   2.309860   0.219818  -1.336850   0.004939   0.361375  -2.710950   4.721770  -5.596940  -1.791710   3.771240 -72.708600  17.064100  -3.728890   0.191875  -0.453057 -18.443600  11.059500  -4.176830   4.344450  42.095800  38.806900 -70.690600 -32.204100   0.000000   0.000032 -11.102000   0.001549  -0.000000 -30.851900   5.193540  -8.617270 -25.562400   0.008214   0.000855 -17.893600   0.011867   0.000477 -28.257300  -1.784850   3.316750 -34.278200  -0.000736   0.001644 -22.829300   0.011061  -0.000812 -27.850000  -1.761380   3.329260 -31.388500  -0.009975   0.000406 -20.904700   0.000535   0.000231 -28.969900  -1.825880   3.294370 -43.533900  -0.002115   0.000182 -28.993500  -0.000314  -0.009951  10.981700   1.398200   9.229340  68.133400  -1.296520  -4.193980  -5.354390  -8.254870  16.878700  -9.919910   2.186390   3.658310 -39.472800  32.799500  66.280600  29.797700  -0.003825   0.002246   9.898830  -0.000403   0.011980  33.083800  10.938100  16.242900  28.349300   0.002716   0.001594  19.844500  -0.002921   0.005388  34.646300   4.773010   6.869030  52.376200   0.000564  -0.004223  34.887100   0.012892   0.002212  33.809300   2.073750   3.101230  50.794600  -0.000145   0.001476  33.829200   0.007255   0.006024  44.812400  -2.606580  -2.621850  67.308000   0.001972   0.000628  44.827200   0.005403   0.011214  -1.968570  15.071700   7.282590   0.208458   0.434889   4.343810   1.402150  -4.802360   5.812440  -0.000000   0.000000  -0.000000  -0.283057  10.392300   2.388730  -3.043440   6.488110 -11.619600   3.841430  -4.193310   9.828300  -0.000000   0.000000  -0.000000
